<svg t="1721726771003" class="icon" viewBox="0 0 1066 1024" version="1.1" xmlns="http://www.w3.org/2000/svg" p-id="1570"
     width="64" height="64">
    <path d="M0.256 639.232V383.872a7.509333 7.509333 0 0 1 5.418667-1.28h117.632a8.405333 8.405333 0 0 1 5.504 1.109333c1.109333 1.706667 1.578667 3.84 1.28 5.845334v244.181333a12.373333 12.373333 0 0 1-0.597334 4.864 2.688 2.688 0 0 1-1.066666 1.194667 12.16 12.16 0 0 1-5.589334 0.768H6.485333a8.533333 8.533333 0 0 1-6.229333-1.28z"
          fill="#4CC6D4" p-id="1571"></path>
    <path d="M384.981333 0h255.36a7.509333 7.509333 0 0 1 1.322667 5.418667v117.333333a8.021333 8.021333 0 0 1-1.066667 5.12 7.424 7.424 0 0 1-5.12 0.981333H390.016a8.277333 8.277333 0 0 1-5.12-0.896 8.746667 8.746667 0 0 1-1.194667-5.845333V5.888A8.106667 8.106667 0 0 1 384.938667 0z"
          fill="#4CE4D2" p-id="1572"></path>
    <path d="M0.256 639.232h128.512a6.314667 6.314667 0 0 1 1.450667 5.333333v117.76a6.784 6.784 0 0 1-1.365334 5.418667H0.128L0.256 639.232z"
          fill="#7FC8E1" p-id="1573"></path>
    <path d="M384.981333 0v127.701333c-1.834667 1.706667-4.138667 1.152-6.272 1.152H263.808a18.56 18.56 0 0 0-6.101333 0.469334 25.429333 25.429333 0 0 1-6.058667 0.469333h-116.053333c-2.261333 0.426667-4.608 0-6.613334-1.237333 1.322667-1.493333 2.944-0.768 4.565334-0.768H253.269333c2.986667 0 2.986667 0 3.114667-2.944v-1.194667V2.090667 0.042667L384.981333 0z"
          fill="#7FEBDF" p-id="1574"></path>
    <path d="M128.810667 383.914667H0.256V256.213333h128.341333l0.64 0.512c0.853333 1.706667 1.152 3.626667 0.938667 5.546667v115.882667a11.221333 11.221333 0 0 1-0.768 5.205333l-0.64 0.554667z"
          fill="#7FDEE0" p-id="1575"></path>
    <path d="M640.341333 127.701333V0h127.701334V127.701333a5.546667 5.546667 0 0 0-0.597334 0.554667 11.690667 11.690667 0 0 1-5.205333 0.597333h-116.053333c-1.962667 0-4.138667 0.469333-5.845334-1.152z"
          fill="#7FEBDF" p-id="1576"></path>
    <path d="M1023.402667 256.256H1024.256v511.616h-127.488c0-2.005333 1.706667-1.834667 2.901333-2.048a32.64 32.64 0 0 1 5.290667-0.170667h113.92c2.261333 0 3.2-1.152 3.2-3.328V644.266667v-4.906667c-0.213333-2.688 0-5.418667 0-8.149333V388.992v-4.906667c-0.213333-17.834667 0-35.669333 0-53.546666V263.04a9.386667 9.386667 0 0 1 1.322667-6.826667z"
          fill="#C8ECF2" p-id="1577"></path>
    <path d="M768 1023.146667V1024H256.426667l0.170666-0.981333a5.845333 5.845333 0 0 1 4.224-1.109334c41.386667 0 82.688-0.170667 124.074667 0 2.56-0.213333 5.205333 0 7.765333 0H640.256c17.834667-0.256 35.712 0 53.546667 0h67.456a9.386667 9.386667 0 0 1 6.741333 1.28z"
          fill="#C8E1F2" p-id="1578"></path>
    <path d="M128.64 767.829333v-126.890666-1.621334h0.256a6.101333 6.101333 0 0 1 4.608-1.194666h101.973333c0.512 0 1.066667 0.042667 1.621334 0.170666 2.218667 0.256 2.901333 1.92 3.754666 3.754667 4.266667 11.733333 9.557333 23.04 15.744 33.92a6.613333 6.613333 0 0 1 1.109334 4.693333v79.786667c0 6.058667 0 6.144 6.101333 6.144h81.450667a6.4 6.4 0 0 1 4.992 1.152c10.581333 5.76 21.632 10.666667 33.024 14.762667 1.706667 0.597333 4.010667 0.853333 3.370666 3.669333a36.181333 36.181333 0 0 0-0.426666 7.338667v94.634666a18.773333 18.773333 0 0 1-0.597334 6.826667 2.56 2.56 0 0 1-1.109333 1.194667 14.250667 14.250667 0 0 1-6.058667 0.725333H263.082667a9.386667 9.386667 0 0 1-6.656-1.28H130.944c-1.536 0-2.261333-0.597333-2.176-2.133333v-3.285334-117.290666c0-1.792 0-3.413333-0.128-5.077334z"
          fill="#33A5CF" p-id="1579"></path>
    <path d="M256.469333 895.573333H384.896a6.570667 6.570667 0 0 1 1.408 5.333334v116.821333a7.253333 7.253333 0 0 1-1.28 5.418667H261.930667c-1.749333 0-3.498667 0-5.290667-0.128v-121.770667a191.36 191.36 0 0 1-0.170667-5.717333z"
          fill="#7FBAE2" p-id="1580"></path>
    <path d="M128.981333 128.64h127.488a7.253333 7.253333 0 0 1 1.28 5.418667V250.88a8.746667 8.746667 0 0 1-1.109333 5.504 7.893333 7.893333 0 0 1-5.461333 1.28H134.357333a6.912 6.912 0 0 1-5.418666-1.28 0.768 0.768 0 0 0-0.426667 0c0-1.834667 0.213333-3.584 0.213333-5.333333V133.632c0-1.749333 0.170667-3.498667 0.256-4.992z"
          fill="#4CDAD3" p-id="1581"></path>
    <path d="M1023.36 639.232V764.842667c0 1.578667-0.725333 2.261333-2.261333 2.218666h-119.850667c-1.578667 0-3.328-0.682667-4.693333 0.768 0 1.664-0.128 3.285333-0.128 4.906667v117.76c0 5.546667 0.298667 5.034667-5.12 5.034667H768.256c0-0.256-0.213333-0.512-0.298667-0.768 2.090667-2.218667 4.821333-1.493333 7.338667-1.493334h111.232c7.850667 0 7.850667 0 7.850667-7.765333v-111.658667c-0.085333-2.56 0-5.162667 0.384-7.722666a21.205333 21.205333 0 0 0 0.64-6.912v-110.378667-4.522667c0-5.546667 0.768-6.4 6.4-6.4h116.48a6.656 6.656 0 0 1 5.077333 1.322667z"
          fill="#7FC8E1" p-id="1582"></path>
    <path d="M768 1023.146667H640.256a7.381333 7.381333 0 0 1-1.28-5.418667v-116.821333a8.789333 8.789333 0 0 1 1.109333-5.546667 8.789333 8.789333 0 0 1 5.845334-1.152h116.096a8.106667 8.106667 0 0 1 5.845333 1.194667l0.341333 0.298666c0 1.792-0.128 3.541333-0.128 5.290667v117.248c0.128 1.664-0.085333 3.285333-0.128 4.906667z"
          fill="#7FBAE2" p-id="1583"></path>
    <path d="M1023.402667 256.256v127.616a7.253333 7.253333 0 0 1-5.418667 1.28h-116.821333A8.362667 8.362667 0 0 1 895.701333 384a6.485333 6.485333 0 0 1-1.28-4.693333c0-41.002667-0.128-82.048 0-123.093334-0.213333-20.138667 0-40.277333 0-60.373333V135.466667a13.781333 13.781333 0 0 1 0.810667-6.4l0.554667-0.64c1.28 1.408 0.682667 3.114667 0.682666 4.693333V250.453333c0 6.101333-0.597333 5.546667 5.418667 5.546667h116.565333l4.949334 0.213333z"
          fill="#7FDEE0" p-id="1584"></path>
    <path d="M768.042667 127.658667c1.792 0 3.541333 0.256 5.333333 0.256h117.546667c1.578667 0 3.285333-0.554667 4.736 0.554666h-0.341334a7.04 7.04 0 0 1-5.376 1.28H773.376a10.837333 10.837333 0 0 1-4.394667-0.597333 2.090667 2.090667 0 0 1-1.024-1.194667l0.085334-0.298666z"
          fill="#4CE4D2" p-id="1585"></path>
    <path d="M238.506667 639.274667H128.896V383.914667a6.016 6.016 0 0 1 4.565333-1.322667c40.917333 0 81.792-0.170667 122.837334 0 7.765333-0.170667 15.573333 0 23.338666 0a7.466667 7.466667 0 0 1 4.693334 1.024c1.877333 2.944 0 5.290667-1.024 7.68-8.746667 20.693333-17.28 41.472-25.642667 62.336-7.04 17.493333-14.037333 34.901333-20.48 52.565333a177.749333 177.749333 0 0 0-9.386667 75.648c1.493333 17.92 5.034667 35.626667 10.624 52.693334 0.554667 1.578667 1.322667 3.157333 0.085334 4.736z"
          fill="#00AEC2" p-id="1586"></path>
    <path d="M768.042667 128.042667v0.469333l-0.597334 0.554667a9.6 9.6 0 0 1-4.821333 0.768h-122.282667c-2.602667 0.213333-5.205333 0-7.808 0H384.981333c-17.493333 0.256-35.157333 0-52.778666 0H263.850667c-2.261333 0-4.693333 0.426667-6.613334-1.322667 1.365333-1.365333 3.114667-0.768 4.650667-0.768H762.709333a16.981333 16.981333 0 0 1 5.333334 0.298667z"
          fill="#4CDAD3" p-id="1587"></path>
    <path d="M257.28 128.512h127.744c1.28 2.261333 1.749333 4.906667 1.28 7.466667v181.973333c0 21.674667 0.170667 43.306667 0 64.981333a4.864 4.864 0 0 1-0.810667 2.304 0.981333 0.981333 0 0 1-1.066666 0.341334 0.981333 0.981333 0 0 1-0.384-0.170667 4.138667 4.138667 0 0 1-0.853334-2.218667c-0.512-11.093333 0-22.101333-0.128-33.152V265.386667v-4.096c0-2.517333-1.024-3.84-3.626666-3.754667H264.490667a15.658667 15.658667 0 0 1-7.253334-0.768l-0.554666-0.554667V134.314667 128.426667l0.597333 0.042666z"
          fill="#33D5CC" p-id="1588"></path>
    <path d="M256.469333 383.914667H128.853333V325.973333 261.12c0-1.706667 0-3.285333 0.170667-4.906667h127.445333a7.381333 7.381333 0 0 1 1.28 5.418667V378.453333a7.68 7.68 0 0 1-1.28 5.461334z"
          fill="#33CACD" p-id="1589"></path>
    <path d="M895.914667 383.829333H1023.317333V639.146667H901.418667c-5.12 0-4.906667-0.298667-4.906667 4.864v119.381333a3.242667 3.242667 0 0 1-0.725333 2.645333 5.546667 5.546667 0 0 1-1.365334-4.565333c0-40.874667-0.170667-81.493333 0-122.282667-0.213333-25.258667 0-50.474667 0-75.690666v-51.968c-0.213333-23.338667 0-46.72 0-69.845334V390.997333a19.626667 19.626667 0 0 1 0.512-6.101333 2.602667 2.602667 0 0 1 0.981334-1.066667z"
          fill="#4CBCD5" p-id="1590"></path>
    <path d="M640.426667 895.530667v127.658666H385.109333v-57.173333-70.314667l0.128-0.298666a8.064 8.064 0 0 1 5.504-1.109334h244.053334a15.104 15.104 0 0 1 4.437333 0.426667c0.426667 0.170667 0.853333 0.426667 1.152 0.810667z"
          fill="#4C9DD6" p-id="1591"></path>
    <path d="M238.506667 639.232c-1.749333-7.125333-4.266667-14.037333-5.973334-21.162667-5.205333-20.992-7.296-42.666667-6.186666-64.256 1.28-19.029333 5.546667-37.76 12.629333-55.466666 14.08-36.778667 29.013333-73.045333 44.117333-109.44a10.88 10.88 0 0 0 1.365334-3.84c0.64-5.674667 3.712-10.453333 5.802666-15.616a251.733333 251.733333 0 0 1 7.722667-18.048c8.96-18.986667 24.106667-29.952 44.970667-31.104a36.48 36.48 0 0 1 36.565333 23.893333 50.133333 50.133333 0 0 1-0.981333 39.765333c-13.44 27.050667-24.832 55.04-37.418667 82.517334-1.024 2.218667-2.133333 4.394667-3.114667 6.656a7.637333 7.637333 0 0 0 4.864 11.093333 19.029333 19.029333 0 0 0 20.053334-4.608c7.338667-6.912 13.568-14.805333 20.394666-22.101333l2.133334-2.133334c12.672-15.786667 26.88-30.208 40.405333-45.312 7.637333-8.533333 15.061333-17.237333 23.168-25.301333 16.128-17.493333 31.914667-35.370667 47.957333-52.992l35.712-39.338667c13.952-15.445333 27.989333-30.848 41.898667-46.378666 6.229333-6.954667 11.861333-14.592 19.370667-20.48a36.608 36.608 0 0 1 45.525333-0.170667 37.973333 37.973333 0 0 1 15.061333 30.464 40.874667 40.874667 0 0 1-11.690666 26.752c-9.514667 10.112-18.389333 20.821333-27.605334 31.232-9.258667 10.410667-18.048 20.48-27.008 30.72l-32.597333 37.162667c-10.325333 11.690667-20.693333 23.381333-31.018667 35.328-9.856 11.306667-19.882667 22.442667-29.653333 33.834666-2.901333 3.370667-3.114667 5.290667-1.109333 7.978667a8.746667 8.746667 0 0 0 10.368 3.498667 11.690667 11.690667 0 0 0 3.328-2.389334c10.496-10.496 21.589333-20.437333 32.384-30.549333 15.786667-14.848 31.573333-29.738667 47.445333-44.458667 9.984-9.258667 19.882667-18.688 29.781333-28.032l51.242667-48.128c6.272-5.845333 12.458667-11.690667 18.773333-17.493333 6.826667-6.272 12.8-13.397333 20.992-18.090667a36.992 36.992 0 0 1 54.741334 24.021334 36.394667 36.394667 0 0 1-10.24 35.242666c-15.957333 16.469333-32.768 32.128-49.066667 48.085334-17.749333 17.493333-35.626667 34.56-53.461333 51.84-18.517333 17.92-36.821333 36.096-55.466667 53.76-10.624 10.026667-20.48 20.906667-31.530667 30.378666a9.642667 9.642667 0 0 0 0.597334 14.72 7.424 7.424 0 0 0 9.728-0.512c12.885333-10.112 25.813333-20.138667 38.698666-30.293333l90.538667-70.826667c12.970667-10.197333 26.069333-20.224 38.954667-30.549333a39.978667 39.978667 0 0 1 24.576-10.069333 31.018667 31.018667 0 0 1 28.714666 17.109333c6.912 12.458667 5.12 27.093333-4.266666 38.997333-5.845333 7.509333-13.653333 12.885333-20.778667 18.944-17.749333 15.146667-35.498667 30.293333-53.290667 45.312l-2.901333 2.261334c-17.834667 15.274667-35.712 30.378667-53.589333 45.525333-19.072 16.298667-38.186667 32.512-57.344 48.682667-4.437333 3.754667-7.850667 7.509333-7.168 13.738666a16.64 16.64 0 0 0 0.725333 3.584c1.706667 4.48 4.437333 5.418667 8.576 2.645334 7.594667-5.077333 14.848-10.581333 22.272-16 31.573333-23.04 63.317333-45.994667 94.890667-69.077334a66.133333 66.133333 0 0 1 29.696-12.970666 24.106667 24.106667 0 0 1 21.333333 6.912 28.885333 28.885333 0 0 1 4.693333 34.005333c-4.437333 7.552-10.282667 14.165333-17.237333 19.498667-20.053333 16.597333-40.106667 33.28-60.032 49.962666l-1.28 0.981334a25.173333 25.173333 0 0 0-2.261333 2.048c-34.090667 28.501333-68.181333 57.002667-102.357334 85.418666-13.397333 11.178667-26.538667 22.656-40.234666 33.493334-24.917333 19.669333-52.906667 32.426667-84.736 35.797333a194.304 194.304 0 0 1-80.213334-9.002667 3.84 3.84 0 0 1-2.645333-1.792 271.36 271.36 0 0 1-30.72-13.184l-9.386667-4.821333c-3.413333 0-5.845333-2.474667-8.362666-4.053333a250.282667 250.282667 0 0 1-54.442667-45.525334 224.512 224.512 0 0 1-25.045333-33.834666 5.845333 5.845333 0 0 1-1.450667-4.096 264.917333 264.917333 0 0 1-14.762667-30.378667l-4.138666-9.984z"
          fill="#FFFFFF" p-id="1592"></path>
    <path d="M386.688 784.938667c9.856 3.114667 19.925333 5.632 30.08 7.594666 15.36 2.730667 31.104 3.584 46.72 2.517334 19.712-1.365333 39.04-6.4 56.917333-14.890667 5.504-2.730667 10.837333-5.717333 16-9.002667 17.109333-10.410667 31.658667-24.064 46.933334-36.693333 36.906667-30.72 73.728-61.44 110.506666-92.16 0.896-0.853333 1.877333-1.536 2.901334-2.261333a12.544 12.544 0 0 1 5.802666-1.066667h59.861334c6.144 0 6.912 0.682667 6.912 6.784v116.181333c0 6.314667-0.938667 7.168-7.509334 7.168h-112.085333c-8.064 0-8.064 0-8.064 8.106667v110.933333c0 2.645333 0.853333 5.589333-2.133333 7.424H388.778667c-1.237333 0-2.474667 0-3.669334-0.170666V883.2v-93.866667c-0.128-1.578667-1.109333-3.797333 1.578667-4.394666z"
          fill="#0083C4" p-id="1593"></path>
    <path d="M257.109333 679.424c4.565333 7.125333 9.045333 14.293333 14.122667 21.034667a247.68 247.68 0 0 0 72.832 64.853333c0.853333 0.512 1.578667 1.066667 2.389333 1.621333-0.896 1.194667-2.218667 0.853333-3.413333 0.853334H260.096c-3.669333 0-3.712 0-3.712-3.584v-81.792c0.128-1.024-0.128-2.133333 0.768-2.986667z"
          fill="#0091C4" p-id="1594"></path>
    <path d="M639.488 895.36a8.789333 8.789333 0 0 0 0.853333-5.546667V773.12c0-5.973333-0.469333-5.461333 5.546667-5.461333h117.034667c5.376 0 5.12 0.426667 5.12-5.034667V645.12v-2.474667c0-1.834667-0.597333-2.901333-2.56-2.730666H696.661333a2.773333 2.773333 0 0 1 1.792-1.493334c2.688-0.426667 5.376-0.597333 8.106667-0.554666h181.589333a10.88 10.88 0 0 1 7.509334 1.28v126.933333c0 2.048-0.170667 4.096-0.170667 6.144v116.138667c0 7.168 0.853333 6.186667-6.4 6.186666h-116.565333c-1.578667 0-3.285333-0.512-4.693334 0.64H640.256l-0.853333 0.128z"
          fill="#33A5CF" p-id="1595"></path>
    <path d="M768.085333 128.512h127.36c0.298667 1.450667 0.426667 2.986667 0.256 4.437333v123.264a7.381333 7.381333 0 0 1-5.418666 1.28h-116.821334a8.405333 8.405333 0 0 1-5.504-1.152 8.32 8.32 0 0 1-1.28-5.845333v-116.48a7.338667 7.338667 0 0 1 1.28-5.418667l0.128-0.085333z"
          fill="#4BD9D3" p-id="1596"></path>
    <path d="M768.256 256.170667h127.573333v127.573333h-0.213333a7.338667 7.338667 0 0 1-5.461333 1.28h-116.48c-6.186667 0-6.997333-0.853333-6.997334-7.210667v-116.053333a10.581333 10.581333 0 0 1 0.768-5.205333 5.461333 5.461333 0 0 1 0.810667-0.426667z"
          fill="#33CACD" p-id="1597"></path>
    <path d="M377.642667 383.914667a12.032 12.032 0 0 1 1.194666-3.882667c4.266667-11.477333 4.181333-24.106667-0.298666-35.498667a36.821333 36.821333 0 0 0-37.973334-23.04 49.28 49.28 0 0 0-41.130666 29.44c-4.608 9.770667-8.533333 19.797333-12.757334 29.696a17.194667 17.194667 0 0 1-2.133333 4.352c-1.024-1.578667-2.645333-1.066667-4.053333-1.066666h-23.893334V256.256H381.696c1.92 0 2.901333 0.725333 2.602667 2.645333V384a5.12 5.12 0 0 1-6.656-0.042667zM638.805333 225.92a37.12 37.12 0 0 0-36.693333-4.266667 35.029333 35.029333 0 0 0-11.690667 8.405334c-16.042667 17.493333-31.786667 35.072-47.701333 52.736a36550.272 36550.272 0 0 1-88.789333 98.090666c-1.365333 1.536-2.944 2.901333-4.266667 4.352H391.722667c-2.304 0.426667-4.693333 0-6.656-1.28V260.778667 133.12v-4.48H640.256a6.997333 6.997333 0 0 1 1.408 5.376v86.613333c-0.085333 1.877333 1.28 5.290667-2.858667 5.290667z"
          fill="#00BDC1" p-id="1598"></path>
    <path d="M638.805333 225.92c0.725333-0.170667 1.365333-0.426667 1.450667-1.194667a16.341333 16.341333 0 0 0 0-2.048V128.64H767.957333v127.573333a7.509333 7.509333 0 0 1-5.418666 1.28h-103.68a7.338667 7.338667 0 0 1-5.418667-1.28 40.192 40.192 0 0 0-4.181333-17.493333 40.746667 40.746667 0 0 0-10.453334-12.8z"
          fill="#33D5CC" p-id="1599"></path>
    <path d="M377.642667 383.957333h6.528v1.621334c0.938667 1.322667 1.322667 2.986667 1.109333 4.650666v62.336a9.642667 9.642667 0 0 1-1.152 5.12c-4.053333 5.418667-9.002667 10.112-13.482667 15.274667a81.365333 81.365333 0 0 1-6.656 7.125333 20.736 20.736 0 0 1-21.12 5.290667c-6.442667-1.962667-8.448-7.338667-5.589333-13.525333 6.741333-14.592 13.269333-29.525333 19.925333-44.330667 4.906667-11.093333 9.813333-22.186667 14.805334-33.152 1.664-3.584 3.754667-6.954667 5.632-10.410667z"
          fill="#00AEC2" p-id="1600"></path>
    <path d="M384.981333 383.914667h60.416c1.450667 0 3.413333-0.981333 4.266667 1.28-4.778667 5.162667-9.386667 10.410667-14.08 15.616-3.285333 3.541333-6.613333 7.125333-9.813333 10.752-4.394667 4.906667-9.216 9.386667-13.141334 14.762666-0.768 1.066667-2.090667 1.792-2.901333 2.901334-4.010667 5.12-9.002667 9.301333-12.8 14.634666a64.512 64.512 0 0 1-6.272 6.4c-1.792 1.792-2.56 4.437333-4.949333 5.802667-1.578667 0-1.152-1.28-1.152-2.090667V386.816c0.042667-0.426667 0.170667-0.853333 0.341333-1.194667l0.085333-1.706666z"
          fill="#00AEC2" p-id="1601"></path>
    <path d="M384.938667 385.493333v65.749334c0 1.536-0.597333 3.285333 0.725333 4.693333a3.114667 3.114667 0 0 1-1.578667 1.664v-72.106667h0.853334z"
          fill="#00BDC1" p-id="1602"></path>
    <path d="M653.525333 256.256h114.517334v122.325333c0 5.845333-0.512 5.376 5.248 5.376h122.368v127.658667a7.338667 7.338667 0 0 1-5.418667 1.28h-170.24c-2.346667 0-4.949333 0.298667-6.698667-2.090667 7.765333-7.253333 16.128-13.866667 24.149334-20.778666 15.232-13.013333 30.592-25.898667 45.824-38.954667a39.68 39.68 0 0 0 14.592-26.026667c1.92-16.469333-10.88-32.64-26.282667-34.773333a36.736 36.736 0 0 0-28.501333 8.576c-32.256 25.173333-64.426667 50.389333-96.597334 75.690667a34586.666667 34586.666667 0 0 1-74.752 58.368 7.68 7.68 0 0 1-8.789333-0.810667 10.666667 10.666667 0 0 1-0.554667-16.384l134.314667-130.517333 55.210667-53.589334a34.56 34.56 0 0 0 10.794666-26.88c-1.28-29.781333-30.933333-43.264-53.973333-31.018666a77.226667 77.226667 0 0 0-15.658667 13.013333c-21.546667 20.053333-42.922667 40.32-64.256 60.501333l-94.805333 89.045334-26.282667 24.661333a9.258667 9.258667 0 0 1-14.037333-0.213333 6.4 6.4 0 0 1-0.426667-9.770667c5.248-6.101333 10.581333-12.074667 15.914667-18.133333l61.013333-69.418667c23.808-27.093333 47.488-54.4 71.552-81.322667a41.642667 41.642667 0 0 0 11.776-25.813333z"
          fill="#03B4C2" p-id="1603"></path>
    <path d="M713.386667 510.848c2.048 0.64 4.266667 0.938667 6.4 0.768h175.914666v127.658667h-192.554666c-1.536 0-3.285333 0.64-4.650667-0.768 11.690667-9.728 23.381333-19.541333 35.072-29.44 9.813333-8.234667 19.669333-16.426667 29.44-24.704 5.546667-4.437333 10.24-9.898667 13.696-16.042667a27.605333 27.605333 0 0 0-4.693333-33.493333 22.144 22.144 0 0 0-18.645334-6.4c-10.368 1.152-20.181333 5.12-28.501333 11.434666-34.432 24.917333-68.864 49.92-103.210667 74.965334-5.376 3.968-10.752 7.893333-16.213333 11.690666-4.437333 3.157333-8.362667 1.877333-10.197333-3.242666a14.08 14.08 0 0 1 3.925333-15.957334l112.554667-95.445333 1.664-1.024z"
          fill="#00A0C3" p-id="1604"></path>
</svg>