<svg t="1721726930733" class="icon" viewBox="0 0 1024 1024" version="1.1" xmlns="http://www.w3.org/2000/svg" p-id="2398"
     width="256" height="256">
    <path d="M497.99168 1019.57632c-9.8304 0.28672-19.53792 0-29.16352 0s-19.49696-1.31072-29.20448-2.4576a505.32352 505.32352 0 0 1-319.6928-166.17472c-8.76544-10.11712-14.336-7.94624-22.40512 0.4096-25.8048 26.54208-52.0192 52.4288-78.52032 78.68416-5.3248 5.28384-9.09312 13.84448-19.00544 12.288V531.6608l249.28256-1.06496h163.30752c-2.37568 11.55072-9.17504 15.27808-14.04928 20.23424-31.744 32.03072-63.488 64.06144-95.76448 95.60064-8.06912 7.86432-10.36288 13.76256-2.74432 23.7568 51.36384 67.29728 120.0128 100.18816 203.69408 98.46784 83.10784-1.6384 144.34304-44.11392 189.2352-111.4112 7.168-10.73152 10.81344-12.24704 20.43904-2.33472a8511.488 8511.488 0 0 0 152.08448 153.43616c13.1072 13.1072 14.45888 21.2992 2.00704 35.59424a516.25984 516.25984 0 0 1-159.49824 125.05088 520.43776 520.43776 0 0 1-210.00192 50.62656z"
          fill="#AAAAAA" p-id="2399"></path>
    <path d="M983.04 526.90944l-410.2144 0.57344c-1.10592 0-2.17088-1.2288-5.3248-3.15392 37.23264-37.10976 73.48224-74.38336 111.2064-110.14144 12.0832-11.42784 10.60864-18.51392 1.51552-30.1056-48.5376-62.01344-113.74592-90.5216-190.38208-95.72352 0-72.25344 0-144.34304-0.65536-216.76032 0-11.6736-3.2768-22.9376 0-34.07872h17.53088c18.55488 2.99008 15.5648 2.17088 21.87264 3.60448 132.3008 9.78944 242.0736 65.57696 330.5472 163.47136 10.52672 11.6736 15.52384 14.04928 27.72992 1.55648 31.3344-32.07168 61.2352-65.57696 96.256-94.33088L983.04 526.90944z"
          fill="#1636AF" p-id="2400"></path>
    <path d="M489.18528 37.35552v34.03776c0.45056 72.25344 0.49152 144.34304 0.65536 216.76032v163.51232c-8.72448 2.53952-10.93632-4.38272-14.5408-7.90528-33.5872-33.25952-67.54304-66.19136-100.02432-100.59776-11.30496-11.8784-18.75968-10.81344-30.3104-1.51552-52.0192 42.1888-84.04992 95.4368-91.83232 162.48832-0.98304 8.76544-2.4576 17.2032-3.72736 25.8048l-249.32352 1.024c1.18784-0.49152 0-17.48992 0-19.2512 0-34.4064 6.7584-68.4032 14.99136-101.66272a473.37472 473.37472 0 0 1 80.60928-171.37664A518.5536 518.5536 0 0 1 172.07296 156.8768c10.07616-8.76544 4.34176-12.61568-1.59744-18.35008-30.88384-30.59712-92.48768-92.32384-92.48768-92.32384L69.2224 37.10976l419.96288 0.24576z"
          fill="#2784FB" p-id="2401"></path>
</svg>